<svg id="Layer_1" data-name="Layer 1" xmlns="http://www.w3.org/2000/svg" viewBox="0 0 1500 1000"><defs><style>.cls-1{fill:#039;}.cls-2{fill:#fc0;}</style></defs><title>European</title><rect class="cls-1" width="1500" height="1000"/><polygon class="cls-2" points="750 111.11 737.53 149.5 697.16 149.5 729.82 173.22 717.35 211.61 750 187.89 782.65 211.61 770.18 173.22 802.84 149.5 762.47 149.5 750 111.11"/><polygon class="cls-2" points="762.47 816.17 750 777.78 737.53 816.17 697.16 816.17 729.82 839.89 717.35 878.28 750 854.55 782.65 878.28 770.18 839.89 802.84 816.17 762.47 816.17"/><polygon class="cls-2" points="416.67 521.22 449.32 544.95 436.85 506.56 469.5 482.83 429.14 482.83 416.67 444.44 404.19 482.83 363.83 482.83 396.49 506.56 384.01 544.95 416.67 521.22"/><polygon class="cls-2" points="583.33 155.77 570.86 194.16 530.5 194.16 563.15 217.88 550.68 256.27 583.33 232.54 615.99 256.27 603.51 217.88 636.17 194.16 595.81 194.16 583.33 155.77"/><polygon class="cls-2" points="461.32 277.78 448.85 316.17 408.49 316.17 441.14 339.89 428.67 378.28 461.32 354.55 493.98 378.28 481.51 339.89 514.16 316.17 473.8 316.17 461.32 277.78"/><polygon class="cls-2" points="473.8 649.5 461.32 611.11 448.85 649.5 408.49 649.5 441.14 673.22 428.67 711.61 461.32 687.89 493.98 711.61 481.51 673.22 514.16 649.5 473.8 649.5"/><polygon class="cls-2" points="595.81 771.51 583.33 733.12 570.86 771.51 530.5 771.51 563.15 795.23 550.68 833.62 583.33 809.89 615.99 833.62 603.51 795.23 636.17 771.51 595.81 771.51"/><polygon class="cls-2" points="1136.17 482.83 1095.81 482.83 1083.33 444.44 1070.86 482.83 1030.5 482.83 1063.15 506.56 1050.68 544.95 1083.33 521.22 1115.99 544.95 1103.52 506.56 1136.17 482.83"/><polygon class="cls-2" points="916.67 155.77 904.19 194.16 863.83 194.16 896.49 217.88 884.01 256.27 916.67 232.54 949.32 256.27 936.85 217.88 969.5 194.16 929.14 194.16 916.67 155.77"/><polygon class="cls-2" points="1018.49 339.89 1006.02 378.28 1038.67 354.55 1071.33 378.28 1058.86 339.89 1091.51 316.17 1051.15 316.17 1038.67 277.78 1026.2 316.17 985.84 316.17 1018.49 339.89"/><polygon class="cls-2" points="1051.15 649.5 1038.67 611.11 1026.2 649.5 985.84 649.5 1018.49 673.22 1006.02 711.61 1038.67 687.89 1071.33 711.61 1058.86 673.22 1091.51 649.5 1051.15 649.5"/><polygon class="cls-2" points="929.14 771.51 916.67 733.12 904.19 771.51 863.83 771.51 896.49 795.23 884.01 833.62 916.67 809.89 949.32 833.62 936.85 795.23 969.5 771.51 929.14 771.51"/></svg>